<?xml version="1.0" encoding="UTF-8" standalone="no"?>
<!DOCTYPE svg PUBLIC "-//W3C//DTD SVG 1.1//EN" "http://www.w3.org/Graphics/SVG/1.1/DTD/svg11.dtd">
<svg width="100%" height="100%" viewBox="0 0 1224 550" version="1.1" xmlns="http://www.w3.org/2000/svg" xmlns:xlink="http://www.w3.org/1999/xlink" xml:space="preserve" xmlns:serif="http://www.serif.com/" style="fill-rule:evenodd;clip-rule:evenodd;stroke-linecap:round;stroke-linejoin:round;stroke-miterlimit:1.5;">
    <g transform="matrix(1,0,0,1,-194.48,-627.265)">
        <g>
            <g transform="matrix(1,0,0,1,61.9847,-131.154)">
                <path d="M674.147,900.082L674.147,1166.74C674.147,1240.33 614.404,1300.07 540.817,1300.07L274.158,1300.07C200.572,1300.07 140.829,1240.33 140.829,1166.74L140.829,900.082C140.829,826.495 200.572,766.752 274.158,766.752L540.817,766.752C614.404,766.752 674.147,826.495 674.147,900.082Z" style="fill:none;stroke:black;stroke-width:16.67px;"/>
            </g>
            <g transform="matrix(1.34631,0,0,1.34631,-369.694,-569.25)">
                <path d="M502.22,1210.52C502.22,1208.15 502.746,1206.04 503.797,1204.19C504.849,1202.33 506.28,1200.88 508.09,1199.83C509.901,1198.78 511.934,1198.25 514.19,1198.25C515.973,1198.25 517.696,1198.53 519.361,1199.09C521.025,1199.65 522.512,1200.41 523.821,1201.38C525.13,1202.35 526.098,1203.46 526.725,1204.73L526.725,1194.77C525.388,1193.44 523.577,1192.39 521.293,1191.62C519.009,1190.85 516.502,1190.46 513.772,1190.46C509.831,1190.46 506.287,1191.31 503.139,1193.01C499.992,1194.71 497.506,1197.06 495.681,1200.06C493.857,1203.06 492.945,1206.55 492.945,1210.52C492.945,1214.43 493.857,1217.9 495.681,1220.93C497.506,1223.96 499.992,1226.32 503.139,1228.02C506.287,1229.72 509.831,1230.57 513.772,1230.57C516.502,1230.57 519.009,1230.18 521.293,1229.41C523.577,1228.64 525.388,1227.58 526.725,1226.23L526.725,1216.28C526.098,1217.49 525.144,1218.6 523.863,1219.59C522.581,1220.59 521.112,1221.37 519.455,1221.93C517.797,1222.5 516.043,1222.78 514.19,1222.78C511.934,1222.78 509.901,1222.26 508.09,1221.21C506.28,1220.17 504.849,1218.73 503.797,1216.9C502.746,1215.07 502.22,1212.94 502.22,1210.52Z" style="fill-rule:nonzero;"/>
            </g>
            <g transform="matrix(1.34631,0,0,1.34631,-369.694,-569.25)">
                <path d="M595.35,1205.29C595.35,1202.15 594.901,1199.46 594.002,1197.24C593.104,1195.02 591.753,1193.33 589.95,1192.17C588.146,1191.02 585.859,1190.44 583.087,1190.44C580.511,1190.44 578.206,1191.02 576.172,1192.18C574.139,1193.35 572.44,1195.05 571.075,1197.29C570.226,1195.09 568.868,1193.4 567.001,1192.22C565.135,1191.03 562.802,1190.44 560.003,1190.44C557.51,1190.44 555.369,1190.99 553.579,1192.09C551.79,1193.19 550.324,1194.81 549.182,1196.94L549.182,1191.3L540.303,1191.3L540.303,1229.74L549.182,1229.74L549.182,1206.34C549.182,1204.51 549.495,1202.96 550.122,1201.67C550.749,1200.38 551.633,1199.41 552.775,1198.75C553.917,1198.08 555.261,1197.75 556.807,1197.75C559.007,1197.75 560.619,1198.46 561.643,1199.87C562.667,1201.29 563.178,1203.44 563.178,1206.34L563.178,1229.74L572.266,1229.74L572.266,1206.34C572.266,1204.51 572.579,1202.96 573.206,1201.67C573.833,1200.38 574.717,1199.41 575.859,1198.75C577.001,1198.08 578.345,1197.75 579.891,1197.75C582.091,1197.75 583.703,1198.46 584.727,1199.87C585.751,1201.29 586.262,1203.44 586.262,1206.34L586.262,1229.74L595.35,1229.74L595.35,1205.29Z" style="fill-rule:nonzero;"/>
            </g>
            <g transform="matrix(1.34631,0,0,1.34631,-369.694,-569.25)">
                <path d="M638.593,1164.56L638.593,1229.74L647.68,1229.74L647.68,1164.56L638.593,1164.56ZM606.735,1210.52C606.735,1214.71 607.602,1218.31 609.336,1221.31C611.07,1224.31 613.364,1226.6 616.219,1228.19C619.074,1229.78 622.159,1230.57 625.474,1230.57C628.705,1230.57 631.536,1229.76 633.966,1228.15C636.396,1226.53 638.311,1224.22 639.711,1221.21C641.11,1218.2 641.81,1214.64 641.81,1210.52C641.81,1206.34 641.11,1202.76 639.711,1199.78C638.311,1196.8 636.396,1194.5 633.966,1192.88C631.536,1191.27 628.705,1190.46 625.474,1190.46C622.159,1190.46 619.074,1191.26 616.219,1192.84C613.364,1194.43 611.07,1196.71 609.336,1199.68C607.602,1202.66 606.735,1206.27 606.735,1210.52ZM616.115,1210.52C616.115,1207.94 616.641,1205.74 617.692,1203.91C618.744,1202.09 620.154,1200.7 621.923,1199.74C623.691,1198.78 625.606,1198.3 627.667,1198.3C629.408,1198.3 631.121,1198.77 632.806,1199.72C634.492,1200.66 635.877,1202.05 636.964,1203.87C638.05,1205.7 638.593,1207.91 638.593,1210.52C638.593,1213.12 638.05,1215.34 636.964,1217.16C635.877,1218.98 634.492,1220.37 632.806,1221.32C631.121,1222.26 629.408,1222.74 627.667,1222.74C625.606,1222.74 623.691,1222.26 621.923,1221.3C620.154,1220.34 618.744,1218.94 617.692,1217.11C616.641,1215.28 616.115,1213.08 616.115,1210.52Z" style="fill-rule:nonzero;"/>
            </g>
            <g transform="matrix(0.146507,0,0,0.146507,529.969,724.556)">
                <path d="M640,480L560,480L560,320L640,320C728.36,320 800,248.36 800,160C800,71.64 728.36,0 640,0C551.63,0 480,71.64 480,160L480,240L320,240L320,160C320,71.64 248.36,0 160,0C71.64,0 0,71.64 0,160C0,248.36 71.64,320 160,320L240,320L240,480L160,480C71.64,480 0,551.64 0,640C0,728.36 71.64,800 160,800C248.37,800 320,728.36 320,640L320,560L480,560L480,639.8C480,639.88 479.99,639.94 479.99,640C479.99,728.36 551.63,800 639.99,800C728.35,800 799.99,728.36 799.99,640C799.99,551.64 728.36,480.02 640,480ZM640,80C684.18,80 720,115.82 720,160C720,204.18 684.18,240 640,240L560,240L560,160C560,115.82 595.82,80 640,80ZM80,160C80,115.82 115.82,80 160,80C204.18,80 240,115.82 240,160L240,240L160,240C115.82,240 80,204.17 80,160ZM160,720C115.82,720 80,684.18 80,640C80,595.82 115.82,560 160,560L240,560L240,640C240,684.18 204.18,720 160,720ZM320,480L320,320L480,320L480,480L320,480ZM640,720C595.82,720 560,684.18 560,640L560,560L639.99,560C684.17,560 719.99,595.82 719.99,640C719.99,684.18 684.18,720 640,720Z" style="fill-rule:nonzero;"/>
            </g>
            <g transform="matrix(1,0,0,1,735.553,-131.154)">
                <path d="M674.147,900.082L674.147,1166.74C674.147,1240.33 614.404,1300.07 540.817,1300.07L274.158,1300.07C200.572,1300.07 140.829,1240.33 140.829,1166.74L140.829,900.082C140.829,826.495 200.572,766.752 274.158,766.752L540.817,766.752C614.404,766.752 674.147,826.495 674.147,900.082Z" style="fill:none;stroke:black;stroke-width:16.67px;"/>
            </g>
            <g transform="matrix(1,0,0,1,474.547,-142.848)">
                <path d="M500.563,1212.69L493.475,1219.84C494.994,1221.77 496.864,1223.61 499.086,1225.38C501.308,1227.14 503.891,1228.56 506.835,1229.65C509.778,1230.74 513.032,1231.28 516.594,1231.28C522.257,1231.28 526.752,1229.82 530.08,1226.88C533.408,1223.95 535.072,1220.02 535.072,1215.11C535.072,1211.98 534.355,1209.44 532.921,1207.49C531.486,1205.54 529.569,1203.89 527.169,1202.55C524.769,1201.21 522.135,1199.98 519.266,1198.85C517.166,1198.01 515.267,1197.21 513.571,1196.46C511.874,1195.71 510.524,1194.88 509.521,1193.95C508.517,1193.02 508.016,1191.93 508.016,1190.67C508.016,1189.25 508.578,1188.17 509.703,1187.44C510.828,1186.7 512.263,1186.34 514.007,1186.34C516.557,1186.34 519.032,1186.98 521.432,1188.27C523.832,1189.55 525.885,1191.19 527.591,1193.2L534.341,1186C532.916,1184.24 531.182,1182.68 529.138,1181.33C527.094,1179.98 524.821,1178.9 522.317,1178.08C519.814,1177.27 517.128,1176.86 514.26,1176.86C511.11,1176.86 508.175,1177.38 505.457,1178.41C502.738,1179.44 500.558,1181 498.917,1183.09C497.277,1185.18 496.457,1187.78 496.457,1190.89C496.457,1194.01 497.202,1196.58 498.692,1198.62C500.183,1200.65 502.063,1202.29 504.332,1203.52C506.6,1204.76 508.897,1205.82 511.222,1206.7C513.547,1207.51 515.572,1208.31 517.297,1209.12C519.022,1209.93 520.372,1210.86 521.347,1211.92C522.322,1212.98 522.81,1214.27 522.81,1215.79C522.81,1217.49 522.2,1218.84 520.982,1219.84C519.763,1220.83 518.047,1221.33 515.835,1221.33C514.11,1221.33 512.385,1220.99 510.66,1220.33C508.935,1219.66 507.242,1218.68 505.583,1217.38C503.924,1216.07 502.25,1214.51 500.563,1212.69Z" style="fill-rule:nonzero;"/>
            </g>
            <g transform="matrix(1,0,0,1,474.547,-142.848)">
                <path d="M541.963,1177.99L541.963,1188.67L571.353,1188.67L571.353,1177.99L541.963,1177.99ZM550.682,1159.99L550.682,1229.74L562.635,1229.74L562.635,1159.99L550.682,1159.99Z" style="fill-rule:nonzero;"/>
            </g>
            <g transform="matrix(1,0,0,1,474.547,-142.848)">
                <path d="M593.853,1177.99L581.76,1177.99L581.76,1229.74L593.853,1229.74L593.853,1177.99ZM609.21,1190.98L615.144,1180.69C613.963,1179.3 612.547,1178.3 610.897,1177.7C609.247,1177.1 607.485,1176.8 605.61,1176.8C603.022,1176.8 600.505,1177.75 598.058,1179.63C595.611,1181.52 593.624,1184.06 592.096,1187.25C590.567,1190.45 589.803,1194.11 589.803,1198.24L593.853,1200.63C593.853,1198.15 594.135,1195.99 594.697,1194.13C595.26,1192.27 596.178,1190.83 597.453,1189.8C598.728,1188.77 600.369,1188.25 602.375,1188.25C603.875,1188.25 605.122,1188.48 606.116,1188.94C607.11,1189.4 608.141,1190.08 609.21,1190.98Z" style="fill-rule:nonzero;"/>
            </g>
            <g transform="matrix(1,0,0,1,474.547,-142.848)">
                <path d="M621.388,1233.25C621.557,1237.73 622.714,1241.7 624.861,1245.15C627.008,1248.6 630.069,1251.28 634.044,1253.18C638.019,1255.08 642.8,1256.03 648.388,1256.03C653.113,1256.03 657.505,1255.04 661.564,1253.07C665.624,1251.09 668.91,1248.07 671.422,1244.01C673.935,1239.95 675.191,1234.82 675.191,1228.61L675.191,1177.99L663.238,1177.99L663.238,1228.61C663.238,1232.49 662.502,1235.68 661.03,1238.17C659.558,1240.67 657.669,1242.51 655.363,1243.7C653.057,1244.89 650.638,1245.49 648.107,1245.49C645.2,1245.49 642.664,1244.95 640.499,1243.88C638.333,1242.81 636.641,1241.36 635.422,1239.51C634.203,1237.66 633.557,1235.58 633.482,1233.25L621.388,1233.25ZM620.347,1203.58C620.347,1209.22 621.514,1214.04 623.849,1218.04C626.183,1222.03 629.272,1225.07 633.116,1227.16C636.96,1229.25 641.113,1230.3 645.575,1230.3C649.925,1230.3 653.736,1229.23 657.008,1227.11C660.28,1224.98 662.858,1221.91 664.742,1217.91C666.627,1213.91 667.569,1209.13 667.569,1203.58C667.569,1197.95 666.627,1193.16 664.742,1189.19C662.858,1185.23 660.28,1182.18 657.008,1180.05C653.736,1177.92 649.925,1176.86 645.575,1176.86C641.113,1176.86 636.96,1177.91 633.116,1180C629.272,1182.09 626.183,1185.11 623.849,1189.07C621.514,1193.02 620.347,1197.86 620.347,1203.58ZM632.975,1203.58C632.975,1200.11 633.683,1197.17 635.099,1194.76C636.514,1192.35 638.413,1190.53 640.794,1189.28C643.175,1188.03 645.753,1187.41 648.528,1187.41C650.272,1187.41 652.011,1187.76 653.746,1188.46C655.48,1189.16 657.064,1190.2 658.499,1191.57C659.933,1192.94 661.082,1194.62 661.944,1196.62C662.807,1198.62 663.238,1200.94 663.238,1203.58C663.238,1207.09 662.507,1210.04 661.044,1212.45C659.582,1214.86 657.716,1216.68 655.447,1217.91C653.178,1219.14 650.872,1219.75 648.528,1219.75C645.753,1219.75 643.175,1219.13 640.794,1217.88C638.413,1216.63 636.514,1214.8 635.099,1212.38C633.683,1209.96 632.975,1207.03 632.975,1203.58Z" style="fill-rule:nonzero;"/>
            </g>
        </g>
    </g>
</svg>